HIERARCHY
ROOT SpineBase
{
  OFFSET 0.000000 0.000000 0.000000
  CHANNELS 6 Xposition Yposition Zposition Zrotation Xrotation Yrotation
  JOINT SpineMid
  {
    OFFSET 0.000000 31.171463 0.000000
    CHANNELS 3 Zrotation Xrotation Yrotation
    JOINT SpineShoulder
    {
      OFFSET 0.272713 23.128766 -0.988311
      CHANNELS 3 Zrotation Xrotation Yrotation
      JOINT Neck
      {
        OFFSET 0.175943 7.669129 -0.654457
        CHANNELS 3 Zrotation Xrotation Yrotation
        JOINT Head
        {
          OFFSET 3.319576 10.873646 1.816599
          CHANNELS 3 Zrotation Xrotation Yrotation
          End Site
          {
            OFFSET 0 0 0
          }
        }
      }
      JOINT ShoulderLeft
      {
        OFFSET -12.579087 -2.168571 -10.989125
        CHANNELS 3 Zrotation Xrotation Yrotation
        JOINT ElbowLeft
        {
          OFFSET -5.186242 -25.561265 -4.590769
          CHANNELS 3 Zrotation Xrotation Yrotation
          JOINT WristLeft
          {
            OFFSET -0.447939 -24.534637 -6.337288
            CHANNELS 3 Zrotation Xrotation Yrotation
            JOINT HandLeft
            {
              OFFSET -1.466361 -7.564755 -0.659446
              CHANNELS 3 Zrotation Xrotation Yrotation
              JOINT HandTipLeft
              {
                OFFSET 0.277054 -6.225832 -0.840130
                CHANNELS 3 Zrotation Xrotation Yrotation
                End Site
                {
                  OFFSET 0 0 0
                }
              }
              JOINT ThumbLeft
              {
                OFFSET 3.450084 -0.451564 0.994803
                CHANNELS 3 Zrotation Xrotation Yrotation
                End Site
                {
                  OFFSET 0 0 0
                }
              }
            }
          }
        }
      }
      JOINT ShoulderRight
      {
        OFFSET 15.650723 -5.821350 9.307347
        CHANNELS 3 Zrotation Xrotation Yrotation
        JOINT ElbowRight
        {
          OFFSET 1.422098 -26.320127 2.081508
          CHANNELS 3 Zrotation Xrotation Yrotation
          JOINT WristRight
          {
            OFFSET 3.983352 -21.213299 -6.351077
            CHANNELS 3 Zrotation Xrotation Yrotation
            JOINT HandRight
            {
              OFFSET -0.560559 -7.834025 -2.870472
              CHANNELS 3 Zrotation Xrotation Yrotation
              JOINT HandTipRight
              {
                OFFSET 0.442392 -6.674876 -2.571111
                CHANNELS 3 Zrotation Xrotation Yrotation
                End Site
                {
                  OFFSET 0 0 0
                }
              }
              JOINT ThumbRight
              {
                OFFSET 2.784527 -0.479025 -3.385175
                CHANNELS 3 Zrotation Xrotation Yrotation
                End Site
                {
                  OFFSET 0 0 0
                }
              }
            }
          }
        }
      }
    }
  }
  JOINT HipLeft
  {
    OFFSET -5.271672 1.545540 -7.510546
    CHANNELS 3 Zrotation Xrotation Yrotation
    JOINT KneeLeft
    {
      OFFSET -11.105731 -31.074579 -4.511141
      CHANNELS 3 Zrotation Xrotation Yrotation
      JOINT AnkleLeft
      {
        OFFSET -10.609708 -40.640091 5.945480
        CHANNELS 3 Zrotation Xrotation Yrotation
        JOINT FootLeft
        {
          OFFSET -0.256545 -7.666996 -7.658592
          CHANNELS 3 Zrotation Xrotation Yrotation
          End Site
          {
            OFFSET 0 0 0
          }
        }
      }
    }
  }
  JOINT HipRight
  {
    OFFSET 6.914953 0.299502 -0.323905
    CHANNELS 3 Zrotation Xrotation Yrotation
    JOINT KneeRight
    {
      OFFSET -2.239807 -35.124596 2.701085
      CHANNELS 3 Zrotation Xrotation Yrotation
      JOINT AnkleRight
      {
        OFFSET -2.941666 -36.998589 5.817820
        CHANNELS 3 Zrotation Xrotation Yrotation
        JOINT FootRight
        {
          OFFSET 7.814691 -2.812279 -13.199939
          CHANNELS 3 Zrotation Xrotation Yrotation
          End Site
          {
            OFFSET 0 0 0
          }
        }
      }
    }
  }
}
MOTION
Frames: 12
Frame Time: 0.033333
-72.392662 80.991726 349.942767 -0.000000 0.000000 -30.528511 -0.000000 0.000000 30.528511 -0.000000 0.000000 0.000000 -0.000000 0.000000 0.000000 0.000000 0.000000 0.000000 -0.000000 0.000000 0.000000 -0.000000 0.000000 0.000000 -0.000000 0.000000 0.000000 -0.000000 0.000000 0.000000 0.000000 0.000000 0.000000 0.000000 0.000000 0.000000 -0.000000 0.000000 0.000000 -0.000000 0.000000 0.000000 -0.000000 0.000000 0.000000 -0.000000 0.000000 0.000000 0.000000 0.000000 0.000000 0.000000 0.000000 0.000000 -0.000000 0.000000 30.528511 -0.000000 0.000000 0.000000 -0.000000 0.000000 0.000000 0.000000 0.000000 0.000000 -0.000000 0.000000 30.528511 -0.000000 0.000000 0.000000 -0.000000 0.000000 0.000000 0.000000 0.000000 0.000000
-72.572134 80.954687 349.827424 -0.108231 0.065486 -30.374106 0.126488 -0.001771 30.374170 -0.000000 0.000000 0.000000 -0.000000 0.000000 0.000000 0.000000 0.000000 0.000000 -0.000000 0.000000 0.000000 -0.748674 0.357906 0.189014 0.747504 -0.360343 -0.184325 -1.465382 -0.532574 0.167443 0.000000 0.000000 0.000000 0.000000 0.000000 0.000000 -0.000000 0.000000 0.000000 -0.827414 0.385829 0.323072 0.825245 -0.390448 -0.317474 -0.671988 -1.680664 0.138429 0.000000 0.000000 0.000000 0.000000 0.000000 0.000000 0.126488 -0.001771 30.374170 -0.000000 0.000000 0.000000 -0.015758 -1.443755 0.064667 0.000000 0.000000 0.000000 0.126488 -0.001771 30.374170 -0.000000 0.000000 0.000000 -4.072249 -6.122010 2.884814 0.000000 0.000000 0.000000
-72.726074 80.924919 349.724549 -0.198013 0.128110 -30.218890 0.235583 -0.011039 30.219134 -0.000000 0.000000 0.000000 -0.000000 0.000000 0.000000 0.000000 0.000000 0.000000 -1.233000 -0.574301 0.331371 -0.061311 1.226012 0.000352 2.937718 -0.604247 -0.453800 -4.068865 -0.925980 0.424394 0.000000 0.000000 0.000000 0.000000 0.000000 0.000000 -0.000000 0.000000 0.000000 -1.545170 0.685327 0.601010 1.538012 -0.701247 -0.582356 -1.114821 -3.107442 0.195358 0.000000 0.000000 0.000000 0.000000 0.000000 0.000000 1.066982 0.080865 30.228814 -0.764623 0.339159 -0.007924 -0.020263 -2.461100 0.104408 0.000000 0.000000 0.000000 0.235583 -0.011039 30.219134 -0.000000 0.000000 0.000000 -8.173150 -12.902108 5.525852 0.000000 0.000000 0.000000
-72.854483 80.902423 349.634141 -0.269457 0.187915 -30.063131 0.327345 -0.027648 30.063652 -0.000000 0.000000 0.000000 -0.000000 0.000000 0.000000 0.000000 0.000000 0.000000 -1.650919 -0.823146 0.450939 0.005673 1.705444 -0.026858 4.755213 -0.852835 -0.635111 -6.031556 -1.059639 0.606491 0.000000 0.000000 0.000000 0.000000 0.000000 0.000000 0.457025 0.715799 0.071985 -2.617001 0.193392 0.730327 1.019244 -1.277459 -0.384843 -0.220972 -3.892250 -0.255186 0.000000 0.000000 0.000000 0.000000 0.000000 0.000000 1.486395 0.096238 30.077576 -1.065089 0.473662 -0.010215 -0.014053 -3.007057 0.117388 0.000000 0.000000 0.000000 1.287760 -0.050979 30.159314 -0.818708 0.502669 -0.091412 -12.022875 -19.732215 7.690191 0.000000 0.000000 0.000000
-72.957361 80.887198 349.556202 -0.322654 0.244946 -29.907080 0.401816 -0.051451 29.907950 -0.000000 0.000000 0.000000 -0.000000 0.000000 0.000000 0.000000 0.000000 0.000000 -1.941520 -1.047167 0.542475 0.140869 2.098043 -0.078488 6.838979 -1.068299 -0.787672 -8.010770 -0.981570 0.782990 0.000000 0.000000 0.000000 0.000000 0.000000 0.000000 0.564450 0.877580 0.087764 -3.243394 0.179513 0.888698 0.968675 -1.570608 -0.362145 0.371709 -4.590856 -0.558187 0.000000 0.000000 0.000000 0.000000 0.000000 0.000000 1.829929 0.095748 29.926006 -1.311177 0.584847 -0.011916 0.002438 -3.057340 0.102693 0.000000 0.000000 0.000000 1.556633 -0.084954 30.023608 -0.983143 0.606785 -0.109078 -15.355908 -25.878680 9.247032 0.000000 0.000000 0.000000
-73.034707 80.879246 349.490730 -0.357670 0.299241 -29.750963 0.459018 -0.082306 29.752226 -0.000000 0.000000 0.000000 0.522012 -0.645601 0.113090 0.000000 0.000000 0.000000 -2.107365 -1.246950 0.607511 0.346462 2.404834 -0.157918 9.201948 -1.250763 -0.913490 -10.024280 -0.689960 0.955360 0.000000 0.000000 0.000000 0.000000 0.000000 0.000000 0.649488 1.000947 0.099813 -3.756676 0.134040 1.010126 0.728581 -1.803703 -0.267716 1.323283 -4.961459 -0.968676 0.000000 0.000000 0.000000 0.000000 0.000000 0.000000 2.097667 0.080025 29.774420 -1.503002 0.672762 -0.013337 0.028996 -2.609956 0.060418 0.000000 0.000000 0.000000 1.744854 -0.126434 29.881889 -1.092968 0.678816 -0.120846 -17.966512 -30.733699 10.205829 0.000000 0.000000 0.000000
-73.082241 80.886917 349.448702 -0.362422 0.339405 -29.599900 0.482771 -0.116089 29.601462 -0.000000 0.000000 0.000000 0.663021 -0.723469 0.114609 0.000000 0.000000 0.000000 -2.072617 -1.416559 0.633157 0.713762 2.642646 -0.300621 11.952569 -1.585107 -0.938856 -12.761959 1.242484 1.263382 0.000000 0.000000 0.000000 0.000000 0.000000 0.000000 0.718430 1.082613 0.108570 -4.238122 -0.092167 1.083998 -0.375305 -2.425089 0.187592 3.204234 -4.427618 -1.768534 0.000000 0.000000 0.000000 0.000000 0.000000 0.000000 2.254643 0.059207 29.624594 -1.626995 0.723383 -0.011981 -0.292616 -2.558130 0.379812 0.000000 0.000000 0.000000 1.801015 -0.158311 29.735049 -1.123798 0.690419 -0.123658 -19.816064 -34.173135 10.830607 0.000000 0.000000 0.000000
-73.111494 80.896873 349.398367 -0.358106 0.384078 -29.396516 0.500524 -0.158841 29.398410 -0.000000 0.000000 0.000000 0.774239 -0.819578 0.126811 0.000000 0.000000 0.000000 -1.964344 -1.586304 0.646856 1.083944 2.776957 -0.453870 15.273043 -2.009103 -0.929541 -14.677050 1.870333 1.299545 0.000000 0.000000 0.000000 0.000000 0.000000 0.000000 0.759537 1.118544 0.113139 -4.459334 -0.211169 1.110174 -1.131837 -2.055996 0.463038 5.741347 -5.122823 -2.706292 0.000000 0.000000 0.000000 0.000000 0.000000 0.000000 2.355242 0.020590 29.422957 -1.703742 0.754717 -0.011087 -1.709514 -3.407395 1.824099 0.000000 0.000000 0.000000 1.824424 -0.230820 29.534357 -1.116472 0.715141 -0.124477 -22.367604 -38.546042 10.822523 0.000000 0.000000 0.000000
-73.121192 80.910347 349.361544 -0.348783 0.441357 -29.252406 0.519980 -0.214629 29.254723 -0.000000 0.000000 0.000000 0.935909 -0.914052 0.130658 0.000000 0.000000 0.000000 -1.783207 -1.721131 0.642432 1.423553 2.788202 -0.599737 18.168924 -2.637111 -0.783405 -16.203022 3.222785 1.279528 0.000000 0.000000 0.000000 0.000000 0.000000 0.000000 0.752397 1.126069 0.113002 -4.625793 -0.303357 1.141706 -2.314038 -2.273294 0.901258 8.877128 -3.575446 -3.820996 0.000000 0.000000 0.000000 0.000000 0.000000 0.000000 2.425893 -0.045150 29.285865 -1.745349 0.784317 -0.014874 1.392231 1.074544 -1.426925 0.000000 0.000000 0.000000 1.769762 -0.307605 29.384913 -1.043444 0.694150 -0.118173 -18.347895 -31.342601 9.983072 0.000000 0.000000 0.000000
-73.100421 80.925528 349.339244 -0.307496 0.489110 -29.118513 0.506648 -0.277651 29.121053 -0.000000 0.000000 0.000000 1.102172 -0.969893 0.121822 0.000000 0.000000 0.000000 -1.529217 -1.849562 0.625388 1.889074 2.780823 -0.790250 21.127550 -1.898004 -1.107257 -18.674619 0.759944 1.429852 0.000000 0.000000 0.000000 0.000000 0.000000 0.000000 0.758325 1.105151 0.112418 -4.665614 -0.274419 1.155510 -2.468185 -2.206250 0.951713 9.130126 -3.971278 -3.923695 0.000000 0.000000 0.000000 0.000000 0.000000 0.000000 2.391008 -0.117761 29.155329 -1.723645 0.778181 -0.016067 3.527240 4.841161 -3.682693 0.000000 0.000000 0.000000 1.679580 -0.371652 29.244630 -0.977575 0.654943 -0.111343 -18.502723 -31.641528 10.080891 0.000000 0.000000 0.000000
-73.052623 80.939881 349.324094 -0.251506 0.561644 -28.947150 0.133155 0.359962 28.942038 0.193552 -0.018409 0.010970 1.015040 -1.833226 0.134883 0.000000 0.000000 0.000000 -1.538265 -2.797865 0.597350 2.572692 2.851198 -1.051418 23.289878 -1.635766 -1.189130 -19.828390 1.812047 1.435069 0.000000 0.000000 0.000000 0.000000 0.000000 0.000000 0.504477 0.262353 0.115567 -5.055491 0.061334 1.347739 -1.510524 -2.920619 0.574565 9.199967 -3.790323 -4.030163 0.000000 0.000000 0.000000 0.000000 0.000000 0.000000 2.356151 -0.239507 28.995982 -1.693824 0.789507 -0.024429 4.898309 7.675536 -5.141108 0.000000 0.000000 0.000000 1.575833 -0.483780 29.066565 -0.892042 0.626162 -0.103646 -16.757074 -28.510377 9.896596 0.000000 0.000000 0.000000
-72.978825 80.956045 349.319274 -0.198835 0.635592 -28.803044 0.097881 0.400871 28.798219 0.197165 -0.012704 0.011705 1.178738 -2.104456 0.150986 0.000000 0.000000 0.000000 -1.429217 -3.032349 0.590310 3.367826 2.976009 -1.332152 24.594254 -1.060647 -1.352681 -19.733284 1.955347 1.307667 0.000000 0.000000 0.000000 0.000000 0.000000 0.000000 0.478172 0.099451 0.116064 -5.064482 -0.056078 1.314647 -1.048374 -2.148080 0.444511 9.013429 -2.925468 -3.760338 0.000000 0.000000 0.000000 0.000000 0.000000 0.000000 2.284616 -0.404316 28.879569 -1.607380 0.821261 -0.048341 5.519016 9.656856 -5.820520 0.000000 0.000000 0.000000 1.500592 -0.597010 28.918146 -0.827268 0.612094 -0.098226 -12.305839 -20.300638 8.828751 0.000000 0.000000 0.000000
